<svg width="1130" height="267" viewBox="0 0 1130 267" fill="none" xmlns="http://www.w3.org/2000/svg">
<path d="M0.794922 2.436H36.4649L65.5229 49.59L94.5809 2.436H130.251V124.236H96.6689V54.288L65.5229 101.964H64.8269L33.8549 54.636V124.236H0.794922V2.436Z" fill="#231F20"/>
<path d="M350.55 126.672C341.85 126.672 333.672 125.106 326.016 121.974C318.36 118.842 311.69 114.492 306.006 108.924C300.438 103.24 295.972 96.57 292.608 88.914C289.36 81.142 287.736 72.732 287.736 63.684V63.336C287.736 54.52 289.36 46.284 292.608 38.628C295.856 30.856 300.322 24.128 306.006 18.444C311.69 12.644 318.418 8.12 326.19 4.872C334.078 1.624 342.662 0 351.942 0C358.206 0 363.89 0.638001 368.994 1.91401C374.098 3.074 378.738 4.814 382.914 7.134C387.206 9.338 391.034 12.006 394.398 15.138C397.878 18.27 400.952 21.692 403.62 25.404L378.216 45.066C374.736 40.658 370.908 37.178 366.732 34.626C362.556 32.074 357.51 30.798 351.594 30.798C347.302 30.798 343.358 31.668 339.762 33.408C336.282 35.032 333.266 37.294 330.714 40.194C328.162 43.094 326.132 46.516 324.624 50.46C323.232 54.404 322.536 58.58 322.536 62.988V63.336C322.536 67.86 323.232 72.152 324.624 76.212C326.132 80.156 328.162 83.578 330.714 86.478C333.266 89.378 336.282 91.698 339.762 93.438C343.358 95.062 347.302 95.874 351.594 95.874C354.726 95.874 357.568 95.526 360.12 94.83C362.788 94.134 365.166 93.148 367.254 91.872C369.458 90.48 371.488 88.914 373.344 87.174C375.316 85.318 377.23 83.288 379.086 81.084L404.49 99.18C401.59 103.124 398.4 106.778 394.92 110.142C391.556 113.506 387.67 116.406 383.262 118.842C378.97 121.278 374.098 123.192 368.646 124.584C363.31 125.976 357.278 126.672 350.55 126.672Z" fill="#231F20"/>
<path d="M419.014 2.436H452.77V48.024H496.096V2.436H529.852V124.236H496.096V77.952H452.77V124.236H419.014V2.436Z" fill="#231F20"/>
<path d="M692.699 2.436H724.193L774.305 66.816V2.436H807.713V124.236H778.133L726.107 57.42V124.236H692.699V2.436Z" fill="#231F20"/>
<path d="M934.09 126.324C923.186 126.324 912.804 124.642 902.944 121.278C893.2 117.914 884.558 112.868 877.018 106.14L895.81 83.694C907.99 93.438 921.156 98.31 935.308 98.31C939.832 98.31 943.254 97.614 945.574 96.222C948.01 94.714 949.228 92.626 949.228 89.958V89.61C949.228 88.334 948.938 87.232 948.358 86.304C947.778 85.26 946.676 84.274 945.052 83.346C943.544 82.418 941.456 81.548 938.788 80.736C936.236 79.808 932.872 78.88 928.696 77.952C922.2 76.444 916.168 74.82 910.6 73.08C905.032 71.224 900.16 68.904 895.984 66.12C891.924 63.22 888.676 59.682 886.24 55.506C883.92 51.214 882.76 45.936 882.76 39.672V39.324C882.76 33.64 883.804 28.42 885.892 23.664C888.096 18.908 891.228 14.79 895.288 11.31C899.464 7.83 904.452 5.162 910.252 3.306C916.052 1.334 922.606 0.348006 929.914 0.348006C940.354 0.348006 949.634 1.74001 957.754 4.524C965.99 7.192 973.414 11.194 980.026 16.53L963.148 40.368C957.58 36.424 951.838 33.466 945.922 31.494C940.122 29.406 934.496 28.362 929.044 28.362C924.984 28.362 921.91 29.116 919.822 30.624C917.85 32.132 916.864 33.988 916.864 36.192V36.54C916.864 37.932 917.154 39.15 917.734 40.194C918.43 41.238 919.532 42.224 921.04 43.152C922.664 43.964 924.81 44.834 927.478 45.762C930.262 46.574 933.742 47.444 937.918 48.372C944.878 49.88 951.142 51.678 956.71 53.766C962.394 55.738 967.208 58.174 971.152 61.074C975.096 63.974 978.112 67.512 980.2 71.688C982.288 75.748 983.332 80.62 983.332 86.304V86.652C983.332 92.916 982.114 98.484 979.678 103.356C977.358 108.228 974.052 112.404 969.76 115.884C965.468 119.248 960.306 121.858 954.274 123.714C948.242 125.454 941.514 126.324 934.09 126.324Z" fill="#231F20"/>
<path d="M999.748 2.436H1035.42L1064.48 49.59L1093.53 2.436H1129.2V124.236H1095.62V54.288L1064.48 101.964H1063.78L1032.81 54.636V124.236H999.748V2.436Z" fill="#231F20"/>
<path d="M830.012 2.43604H863.942V124.236H830.012V2.43604Z" fill="#895698"/>
<rect x="151.855" y="2.43652" width="121.8" height="33.9" fill="#45B5BC"/>
<rect x="151.855" y="46.3867" width="121.8" height="33.9" fill="#E24D0E"/>
<rect x="151.855" y="90.3365" width="121.8" height="33.9" fill="#58AE75"/>
<path fill-rule="evenodd" clip-rule="evenodd" d="M612.599 2.43652L542.758 124.191H678.453L612.599 2.43652ZM611.501 108.409C624.756 108.409 635.501 97.664 635.501 84.4092C635.501 71.1543 624.756 60.4092 611.501 60.4092C598.246 60.4092 587.501 71.1543 587.501 84.4092C587.501 97.664 598.246 108.409 611.501 108.409Z" fill="#F2C202"/>
<path d="M71.4805 140.76H105.41V262.56H71.4805V140.76Z" fill="#231F20"/>
<path d="M324.175 264.648C313.271 264.648 302.889 262.966 293.029 259.602C283.285 256.238 274.643 251.192 267.103 244.464L285.895 222.018C298.075 231.762 311.241 236.634 325.393 236.634C329.917 236.634 333.339 235.938 335.659 234.546C338.095 233.038 339.313 230.95 339.313 228.282V227.934C339.313 226.658 339.023 225.556 338.443 224.628C337.863 223.584 336.761 222.598 335.137 221.67C333.629 220.742 331.541 219.872 328.873 219.06C326.321 218.132 322.957 217.204 318.781 216.276C312.285 214.768 306.253 213.144 300.685 211.404C295.117 209.548 290.245 207.228 286.069 204.444C282.009 201.544 278.761 198.006 276.325 193.83C274.005 189.538 272.845 184.26 272.845 177.996V177.648C272.845 171.964 273.889 166.744 275.977 161.988C278.181 157.232 281.313 153.114 285.373 149.634C289.549 146.154 294.537 143.486 300.337 141.63C306.137 139.658 312.691 138.672 319.999 138.672C330.439 138.672 339.719 140.064 347.839 142.848C356.075 145.516 363.499 149.518 370.111 154.854L353.233 178.692C347.665 174.748 341.923 171.79 336.008 169.818C330.207 167.73 324.581 166.686 319.129 166.686C315.069 166.686 311.995 167.44 309.907 168.948C307.935 170.456 306.949 172.312 306.949 174.516V174.864C306.949 176.256 307.239 177.474 307.819 178.518C308.515 179.562 309.617 180.548 311.125 181.476C312.749 182.288 314.895 183.158 317.563 184.086C320.347 184.898 323.827 185.768 328.003 186.696C334.963 188.204 341.227 190.002 346.795 192.09C352.479 194.062 357.293 196.498 361.237 199.398C365.181 202.298 368.197 205.836 370.285 210.012C372.373 214.072 373.417 218.944 373.417 224.628V224.976C373.417 231.24 372.199 236.808 369.763 241.68C367.443 246.552 364.137 250.728 359.845 254.208C355.553 257.572 350.391 260.182 344.359 262.038C338.327 263.778 331.599 264.648 324.175 264.648Z" fill="#231F20"/>
<path d="M419.587 170.34H383.047V140.76H489.883V170.34H453.343V262.56H419.587V170.34Z" fill="#231F20"/>
<path d="M591.378 170.34H554.838V140.76H661.674V170.34H625.134V262.56H591.378V170.34Z" fill="#231F20"/>
<path d="M851.605 170.34H815.065V140.76H921.901V170.34H885.361V262.56H851.605V170.34Z" fill="#231F20"/>
<rect x="936.719" y="140.76" width="121.8" height="33.9" fill="#E24D0E"/>
<rect x="936.719" y="184.699" width="121.8" height="33.9" fill="#895698"/>
<rect x="936.719" y="228.639" width="121.8" height="33.9" fill="#58AE75"/>
<path d="M505.91 140.76H539.84V262.56H505.91V140.76Z" fill="#45B5BC"/>
<path fill-rule="evenodd" clip-rule="evenodd" d="M249.508 146.519V140.391L243.379 140.391L249.508 146.519ZM229.729 140.391L236.093 140.391L249.508 153.805V160.169L229.729 140.391ZM216.08 140.391L222.444 140.391L249.508 167.454V173.818L216.08 140.391ZM202.431 140.39L208.795 140.39L249.508 181.104V187.468L202.431 140.39ZM188.781 140.39L195.145 140.39L249.508 194.753V201.117L188.781 140.39ZM175.132 140.39L181.496 140.39L249.508 208.403V214.766L175.132 140.39ZM161.482 140.39L167.846 140.39L249.508 222.052V228.416L161.482 140.39ZM147.833 140.39L154.197 140.39L249.508 235.701V242.065L147.833 140.39ZM134.184 140.39L140.548 140.39L249.508 249.351V255.715L134.184 140.39Z" fill="#EBA5B8"/>
<path fill-rule="evenodd" clip-rule="evenodd" d="M133.503 262.162L139.867 262.162L127.737 250.032L127.737 256.396L133.503 262.162ZM127.737 242.747L147.153 262.162L153.517 262.162L127.737 236.383L127.737 242.747ZM127.737 229.097L160.802 262.162L167.166 262.162L127.737 222.733L127.737 229.097ZM127.737 215.448L174.451 262.162L180.815 262.162L127.737 209.084L127.737 215.448ZM127.737 201.798L188.101 262.162L194.465 262.162L127.737 195.434L127.737 201.798ZM127.737 188.149L201.75 262.162L208.114 262.162L127.737 181.785L127.737 188.149ZM127.737 174.5L215.4 262.162L221.764 262.162L127.737 168.136L127.737 174.5ZM127.737 160.85L229.049 262.162L235.413 262.162L127.737 154.486L127.737 160.85ZM127.737 147.201L242.699 262.162L249.063 262.162L127.737 140.837L127.737 147.201Z" fill="#70594C"/>
<path d="M790.8 141V202.5C790.8 231.936 766.937 255.8 737.5 255.8C708.063 255.8 684.2 231.936 684.2 202.5V141M799 141V202.5C799 236.465 771.466 264 737.5 264C703.534 264 676 236.465 676 202.5V141M782.6 141V202.5C782.6 227.408 762.408 247.6 737.5 247.6C712.592 247.6 692.4 227.408 692.4 202.5V141M774.4 141V202.5C774.4 222.879 757.879 239.4 737.5 239.4C717.121 239.4 700.6 222.879 700.6 202.5V141M766.2 141V202.5C766.2 218.35 753.351 231.2 737.5 231.2C721.649 231.2 708.8 218.35 708.8 202.5V141M758 141V202.5C758 213.821 748.822 223 737.5 223C726.178 223 717 213.821 717 202.5V141M749.8 141V202.5C749.8 209.293 744.293 214.8 737.5 214.8C730.707 214.8 725.2 209.293 725.2 202.5V141M741.6 141V202.5C741.6 204.764 739.764 206.6 737.5 206.6C735.236 206.6 733.4 204.764 733.4 202.5V141" stroke="#0A5E9C" stroke-width="4.5"/>
</svg>
