<svg width="152" height="40" viewBox="0 0 152 40" fill="none" xmlns="http://www.w3.org/2000/svg">
	<path fill-rule="evenodd" clip-rule="evenodd" d="M18.1504 40C12.9869 40 8.32689 37.8438 5.0218 34.3828H31.2791C27.974 37.8438 23.314 40 18.1504 40ZM33.069 32.1905C33.6935 31.2913 34.2388 30.3329 34.6947 29.3255L20.4187 3.84018C19.6756 3.74755 18.9186 3.69983 18.1504 3.69983C17.4582 3.69983 16.7751 3.73858 16.1031 3.81402L1.61445 29.3438C2.06871 30.3446 2.61114 31.2968 3.23184 32.1905H33.069ZM36.3009 21.8499C36.3009 23.49 36.0833 25.0794 35.6755 26.5906L23.2615 4.42936C30.7973 6.63661 36.3009 13.6006 36.3009 21.8499ZM0 21.8499C0 13.5164 5.61645 6.49466 13.2706 4.3633L0.635358 26.6274C0.221104 25.1052 0 23.5034 0 21.8499ZM18.3884 27.4621C21.6516 27.4621 24.297 24.8168 24.297 21.5536C24.297 18.2904 21.6516 15.6451 18.3884 15.6451C15.1252 15.6451 12.4798 18.2904 12.4798 21.5536C12.4798 24.8168 15.1252 27.4621 18.3884 27.4621Z" fill="#6D645B" />
	<path fill-rule="evenodd" clip-rule="evenodd" d="M0 32.1905L18.2687 0L36.3007 32.1905H0ZM18.3898 27.462C21.6531 27.462 24.2985 24.8167 24.2985 21.5535C24.2985 18.2903 21.6531 15.645 18.3898 15.645C15.1266 15.645 12.4812 18.2903 12.4812 21.5535C12.4812 24.8167 15.1266 27.462 18.3898 27.462Z" fill="#231E1B" />
	<path d="M48.1543 7.63527H51.4917L54.2105 12.0472L56.9292 7.63527H60.2667V19.0313H57.1246V12.4867L54.2105 16.9474H54.1454L51.2475 12.5193V19.0313H48.1543V7.63527Z" fill="#231E1B" />
	<path d="M62.2881 7.63527H71.4537V10.3215H65.4138V12.0472H70.8839V14.538H65.4138V16.3451H71.5351V19.0313H62.2881V7.63527Z" fill="#231E1B" />
	<path d="M78.6331 19.2592C77.8191 19.2592 77.0539 19.1127 76.3376 18.8196C75.6213 18.5266 74.9972 18.1196 74.4654 17.5986C73.9445 17.0668 73.5266 16.4428 73.2118 15.7264C72.908 14.9993 72.756 14.2124 72.756 13.3658V13.3333C72.756 12.5084 72.908 11.7378 73.2118 11.0215C73.5157 10.2943 73.9336 9.66484 74.4654 9.13303C74.9972 8.59036 75.6267 8.16708 76.3539 7.86319C77.0919 7.5593 77.8951 7.40735 78.7633 7.40735C79.3494 7.40735 79.8812 7.46704 80.3588 7.58643C80.8363 7.69496 81.2705 7.85776 81.6612 8.07483C82.0628 8.28104 82.4209 8.53067 82.7357 8.82371C83.0613 9.11675 83.3489 9.43692 83.5985 9.78423L81.2216 11.6239C80.896 11.2114 80.5379 10.8858 80.1472 10.6471C79.7564 10.4083 79.2843 10.2889 78.7308 10.2889C78.3292 10.2889 77.9602 10.3703 77.6237 10.5331C77.2981 10.6851 77.016 10.8967 76.7772 11.168C76.5384 11.4394 76.3485 11.7595 76.2074 12.1286C76.0771 12.4976 76.012 12.8883 76.012 13.3007V13.3333C76.012 13.7566 76.0771 14.1581 76.2074 14.538C76.3485 14.907 76.5384 15.2272 76.7772 15.4985C77.016 15.7698 77.2981 15.9869 77.6237 16.1497C77.9602 16.3017 78.3292 16.3776 78.7308 16.3776C79.0238 16.3776 79.2897 16.3451 79.5285 16.28C79.7781 16.2148 80.0006 16.1226 80.196 16.0032C80.4022 15.873 80.5921 15.7264 80.7658 15.5636C80.9503 15.39 81.1294 15.2 81.303 14.9938L83.6799 16.687C83.4086 17.056 83.1101 17.3978 82.7845 17.7126C82.4698 18.0273 82.1062 18.2987 81.6938 18.5266C81.2922 18.7545 80.8363 18.9336 80.3262 19.0638C79.827 19.1941 79.2626 19.2592 78.6331 19.2592Z" fill="#231E1B" />
	<path d="M85.0388 7.63527H88.1971V11.9006H92.2509V7.63527H95.4092V19.0313H92.2509V14.7008H88.1971V19.0313H85.0388V7.63527Z" fill="#231E1B" />
	<path d="M104.131 14.538L102.861 11.2983L101.575 14.538H104.131ZM101.364 7.55387H104.408L109.259 19.0313H105.873L105.043 16.9963H100.647L99.8332 19.0313H96.512L101.364 7.55387Z" fill="#231E1B" />
	<path d="M110.365 7.63527H113.312L118 13.6589V7.63527H121.126V19.0313H118.359L113.491 12.7798V19.0313H110.365V7.63527Z" fill="#231E1B" />
	<path d="M123.213 7.63527H126.387V19.0313H123.213V7.63527Z" fill="#231E1B" />
	<path d="M132.95 19.2266C131.93 19.2266 130.959 19.0693 130.036 18.7545C129.125 18.4398 128.316 17.9676 127.611 17.3382L129.369 15.238C130.508 16.1497 131.74 16.6056 133.064 16.6056C133.488 16.6056 133.808 16.5404 134.025 16.4102C134.253 16.2691 134.367 16.0737 134.367 15.8241V15.7916C134.367 15.6722 134.34 15.5691 134.285 15.4822C134.231 15.3846 134.128 15.2923 133.976 15.2055C133.835 15.1186 133.64 15.0372 133.39 14.9613C133.151 14.8744 132.837 14.7876 132.446 14.7008C131.838 14.5597 131.274 14.4078 130.753 14.245C130.232 14.0713 129.776 13.8542 129.385 13.5938C129.005 13.3224 128.701 12.9914 128.473 12.6007C128.256 12.1991 128.148 11.7053 128.148 11.1192V11.0866C128.148 10.5548 128.246 10.0664 128.441 9.62143C128.647 9.17644 128.94 8.79115 129.32 8.46555C129.711 8.13995 130.177 7.89032 130.72 7.71667C131.263 7.53216 131.876 7.43991 132.56 7.43991C133.537 7.43991 134.405 7.57015 135.165 7.83063C135.935 8.08026 136.63 8.4547 137.248 8.95395L135.669 11.1843C135.148 10.8153 134.611 10.5385 134.058 10.354C133.515 10.1587 132.988 10.061 132.478 10.061C132.099 10.061 131.811 10.1315 131.616 10.2726C131.431 10.4137 131.339 10.5874 131.339 10.7936V10.8262C131.339 10.9564 131.366 11.0704 131.42 11.168C131.485 11.2657 131.588 11.358 131.729 11.4448C131.881 11.5208 132.082 11.6022 132.332 11.689C132.592 11.765 132.918 11.8464 133.309 11.9332C133.96 12.0743 134.546 12.2425 135.067 12.4379C135.599 12.6224 136.049 12.8503 136.418 13.1216C136.787 13.393 137.069 13.724 137.265 14.1147C137.46 14.4946 137.558 14.9504 137.558 15.4822V15.5148C137.558 16.1009 137.444 16.6218 137.216 17.0777C136.999 17.5335 136.689 17.9242 136.288 18.2498C135.886 18.5646 135.403 18.8088 134.839 18.9824C134.275 19.1452 133.645 19.2266 132.95 19.2266Z" fill="#231E1B" />
	<path d="M139.094 7.63527H142.431L145.15 12.0472L147.869 7.63527H151.206V19.0313H148.064V12.4867L145.15 16.9474H145.085L142.187 12.5193V19.0313H139.094V7.63527Z" fill="#231E1B" />
	<path d="M48.1543 20.9369H51.342V32.3801H48.1543V20.9369Z" fill="#231E1B" />
	<path d="M53.4369 20.9369H56.3958L61.1039 26.9854V20.9369H64.2426V32.3801H61.4635L56.5756 26.1027V32.3801H53.4369V20.9369Z" fill="#231E1B" />
	<path d="M70.7678 32.5762C69.7433 32.5762 68.7679 32.4182 67.8416 32.1021C66.9261 31.7861 66.1142 31.312 65.4058 30.6799L67.1713 28.5711C68.3157 29.4866 69.5526 29.9443 70.8822 29.9443C71.3072 29.9443 71.6287 29.8789 71.8467 29.7481C72.0756 29.6065 72.19 29.4103 72.19 29.1596V29.1269C72.19 29.007 72.1627 28.9035 72.1083 28.8163C72.0538 28.7182 71.9502 28.6256 71.7977 28.5384C71.656 28.4512 71.4598 28.3695 71.2091 28.2932C70.9694 28.206 70.6533 28.1188 70.261 28.0317C69.6507 27.89 69.084 27.7374 68.5609 27.5739C68.0377 27.3996 67.58 27.1816 67.1877 26.92C66.8062 26.6476 66.5011 26.3152 66.2722 25.9228C66.0543 25.5196 65.9453 25.0237 65.9453 24.4352V24.4025C65.9453 23.8685 66.0434 23.3781 66.2395 22.9313C66.4466 22.4844 66.7408 22.0976 67.1223 21.7706C67.5146 21.4437 67.9833 21.193 68.5282 21.0186C69.0731 20.8334 69.6888 20.7407 70.3754 20.7407C71.3563 20.7407 72.2281 20.8715 72.991 21.1331C73.7648 21.3837 74.4623 21.7597 75.0835 22.261L73.4978 24.5006C72.9747 24.1301 72.4352 23.8522 71.8794 23.6669C71.3345 23.4707 70.8059 23.3727 70.2937 23.3727C69.9122 23.3727 69.6234 23.4435 69.4273 23.5852C69.242 23.7268 69.1494 23.9012 69.1494 24.1083V24.141C69.1494 24.2718 69.1766 24.3862 69.2311 24.4843C69.2965 24.5824 69.4 24.675 69.5417 24.7622C69.6943 24.8385 69.8959 24.9202 70.1466 25.0074C70.4081 25.0837 70.7351 25.1654 71.1274 25.2526C71.7813 25.3943 72.3698 25.5632 72.8929 25.7594C73.4269 25.9446 73.8792 26.1735 74.2498 26.446C74.6203 26.7184 74.9037 27.0508 75.0998 27.4431C75.296 27.8246 75.3941 28.2823 75.3941 28.8163V28.849C75.3941 29.4375 75.2797 29.9606 75.0508 30.4184C74.8328 30.8761 74.5222 31.2684 74.119 31.5954C73.7157 31.9114 73.2308 32.1566 72.6641 32.331C72.0974 32.4945 71.4653 32.5762 70.7678 32.5762Z" fill="#231E1B" />
	<path d="M79.7318 23.7159H76.2988V20.9369H86.3361V23.7159H82.9032V32.3801H79.7318V23.7159Z" fill="#231E1B" />
	<path d="M87.7936 20.9369H90.9814V32.3801H87.7936V20.9369Z" fill="#231E1B" />
	<path d="M95.8717 23.7159H92.4387V20.9369H102.476V23.7159H99.0431V32.3801H95.8717V23.7159Z" fill="#231E1B" />
	<path d="M109.018 32.5926C108.2 32.5926 107.465 32.489 106.811 32.282C106.157 32.0749 105.601 31.7589 105.143 31.3338C104.685 30.8979 104.331 30.353 104.081 29.6991C103.841 29.0343 103.721 28.2551 103.721 27.3614V20.9369H106.941V27.296C106.941 28.1243 107.132 28.74 107.514 29.1433C107.895 29.5356 108.407 29.7318 109.05 29.7318C109.693 29.7318 110.205 29.5411 110.587 29.1596C110.968 28.7782 111.159 28.1842 111.159 27.3778V20.9369H114.379V27.2797C114.379 28.206 114.249 29.007 113.987 29.6827C113.736 30.3475 113.377 30.8979 112.908 31.3338C112.45 31.7589 111.889 32.0749 111.224 32.282C110.571 32.489 109.835 32.5926 109.018 32.5926Z" fill="#231E1B" />
	<path d="M119.052 23.7159H115.619V20.9369H125.656V23.7159H122.223V32.3801H119.052V23.7159Z" fill="#231E1B" />
	<path d="M127.048 20.9369H136.252V23.6342H130.187V25.367H135.68V27.8682H130.187V29.6827H136.334V32.3801H127.048V20.9369Z" fill="#231E1B" />
</svg>
