<svg width="209" height="36" viewBox="0 0 209 36" fill="none" xmlns="http://www.w3.org/2000/svg">
<path d="M1 2H17H33V18V34H17H1V18V2Z" stroke="#231F20" stroke-width="2"/>
<path d="M29.9661 25.5247L17.0265 3.05066L4.0332 25.5558L29.9661 25.5247Z" stroke="#231F20" stroke-width="2"/>
<circle cx="17" cy="18" r="16" stroke="#231F20" stroke-width="2"/>
<circle cx="16.9999" cy="17.9998" r="7.46277" stroke="#231F20" stroke-width="2"/>
<path d="M42.9316 17V0.900023H46.7496L50.9816 7.70802L55.2136 0.900023H59.0316V17H55.5126V6.48902L50.9816 13.366H50.8896L46.4046 6.55802V17H42.9316Z" fill="#231F20"/>
<path d="M62.8994 17V0.900023H75.0434V4.05102H66.4184V7.31702H74.0084V10.468H66.4184V13.849H75.1584V17H62.8994Z" fill="#231F20"/>
<path d="M85.8516 17.276C81.1136 17.276 77.5946 13.619 77.5946 8.99602V8.95002C77.5946 4.37302 81.0446 0.624023 85.9896 0.624023C89.0256 0.624023 90.8426 1.63602 92.3376 3.10802L90.0836 5.70702C88.8416 4.58002 87.5766 3.89002 85.9666 3.89002C83.2526 3.89002 81.2976 6.14402 81.2976 8.90402V8.95002C81.2976 11.71 83.2066 14.01 85.9666 14.01C87.8066 14.01 88.9336 13.274 90.1986 12.124L92.4526 14.401C90.7966 16.172 88.9566 17.276 85.8516 17.276Z" fill="#231F20"/>
<path d="M95.2881 17V0.900023H98.8301V7.27102H105.362V0.900023H108.904V17H105.362V10.537H98.8301V17H95.2881Z" fill="#231F20"/>
<path d="M111.383 17L118.283 0.785023H121.549L128.449 17H124.746L123.274 13.389H116.466L114.994 17H111.383ZM117.731 10.261H122.009L119.87 5.04002L117.731 10.261Z" fill="#231F20"/>
<path d="M130.934 17V0.900023H134.2L141.744 10.813V0.900023H145.24V17H142.227L134.43 6.76502V17H130.934Z" fill="#231F20"/>
<path d="M149.265 17V0.900023H152.807V17H149.265Z" fill="#231F20"/>
<path d="M162.558 17.23C160.12 17.23 157.659 16.379 155.727 14.654L157.82 12.147C159.269 13.343 160.787 14.102 162.627 14.102C164.076 14.102 164.95 13.527 164.95 12.584V12.538C164.95 11.641 164.398 11.181 161.707 10.491C158.464 9.66302 156.371 8.76602 156.371 5.56902V5.52302C156.371 2.60202 158.717 0.670023 162.006 0.670023C164.352 0.670023 166.353 1.40602 167.986 2.71702L166.146 5.38502C164.72 4.39602 163.317 3.79802 161.96 3.79802C160.603 3.79802 159.89 4.41902 159.89 5.20102V5.24702C159.89 6.30502 160.58 6.65002 163.363 7.36302C166.629 8.21402 168.469 9.38702 168.469 12.193V12.239C168.469 15.436 166.031 17.23 162.558 17.23Z" fill="#231F20"/>
<path d="M171.543 17V0.900023H175.361L179.593 7.70802L183.825 0.900023H187.643V17H184.124V6.48902L179.593 13.366H179.501L175.016 6.55802V17H171.543Z" fill="#231F20"/>
<path d="M42.5879 35.1514V23.6901H44.6018V35.1514H42.5879Z" fill="#231F20"/>
<path d="M47.6699 35.1514V23.6901H49.5365L55.6765 31.6148V23.6901H57.6576V35.1514H55.9712L49.6511 26.9975V35.1514H47.6699Z" fill="#231F20"/>
<path d="M64.6169 35.3152C62.865 35.3152 61.2113 34.7094 59.8359 33.4814L61.0475 32.0405C62.1446 32.9902 63.2579 33.5305 64.666 33.5305C65.9104 33.5305 66.6963 32.941 66.6963 32.0896V32.0569C66.6963 31.2382 66.2379 30.7961 64.1094 30.3049C61.6697 29.7155 60.2944 28.9951 60.2944 26.8829V26.8502C60.2944 24.8854 61.9317 23.5264 64.2076 23.5264C65.8777 23.5264 67.2039 24.0339 68.3664 24.9672L67.2858 26.4899C66.2543 25.7204 65.2227 25.3111 64.1748 25.3111C62.996 25.3111 62.3083 25.9169 62.3083 26.67V26.7028C62.3083 27.587 62.8322 27.9799 65.0426 28.5039C67.4659 29.0933 68.7103 29.9611 68.7103 31.8604V31.8931C68.7103 34.038 67.0238 35.3152 64.6169 35.3152Z" fill="#231F20"/>
<path d="M73.655 35.1514V25.5567H70.0201V23.6901H79.3202V25.5567H75.6853V35.1514H73.655Z" fill="#231F20"/>
<path d="M81.5705 35.1514V23.6901H83.5844V35.1514H81.5705Z" fill="#231F20"/>
<path d="M89.4687 35.1514V25.5567H85.8338V23.6901H95.1339V25.5567H91.499V35.1514H89.4687Z" fill="#231F20"/>
<path d="M101.969 35.3315C98.9888 35.3315 97.0895 33.6123 97.0895 30.2886V23.6901H99.1034V30.2067C99.1034 32.3352 100.2 33.465 102.001 33.465C103.786 33.465 104.883 32.4007 104.883 30.2886V23.6901H106.897V30.1903C106.897 33.6123 104.965 35.3315 101.969 35.3315Z" fill="#231F20"/>
<path d="M112.478 35.1514V25.5567H108.843V23.6901H118.143V25.5567H114.508V35.1514H112.478Z" fill="#231F20"/>
<path d="M120.279 35.1514V23.6901H128.776V25.4912H122.292V28.4711H128.04V30.2722H122.292V33.3504H128.858V35.1514H120.279Z" fill="#231F20"/>
</svg>
