<svg width="179" height="36" viewBox="0 0 179 36" fill="none" xmlns="http://www.w3.org/2000/svg">
	<rect x="11.2812" y="11.2774" width="13.2176" height="13.2176" rx="6.60878" fill="#231E1B" />
	<rect x="1.93555" y="17.8862" width="6.60878" height="6.60878" transform="rotate(-45 1.93555 17.8862)" fill="#231E1B" />
	<rect x="24.498" y="17.8862" width="6.60878" height="6.60878" transform="rotate(-45 24.498 17.8862)" fill="#231E1B" />
	<rect x="22.5625" y="6.6048" width="9.33995" height="9.33995" transform="rotate(-45 22.5625 6.6048)" fill="#231E1B" />
	<rect x="0.00195312" y="29.1644" width="9.33995" height="9.33995" transform="rotate(-45 0.00195312 29.1644)" fill="#231E1B" />
	<rect x="6.60352" y="13.2087" width="9.33995" height="9.33995" transform="rotate(-135 6.60352 13.2087)" fill="#231E1B" />
	<rect x="29.168" y="35.7682" width="9.33995" height="9.33995" transform="rotate(-135 29.168 35.7682)" fill="#231E1B" />
	<rect x="17.8906" y="33.8401" width="6.60878" height="6.60878" transform="rotate(-135 17.8906 33.8401)" fill="#231E1B" />
	<rect x="17.8906" y="11.2774" width="6.60878" height="6.60878" transform="rotate(-135 17.8906 11.2774)" fill="#231E1B" />
	<path d="M43.7715 0.770903H48.1199L51.6623 6.51931L55.2047 0.770903H59.5531V15.6192H55.4592V7.09203L51.6623 12.9041H51.5774L47.8017 7.13445V15.6192H43.7715V0.770903Z" fill="#231E1B" />
	<path d="M62.1868 0.770903H74.1291V4.27085H66.2595V6.51931H73.3867V9.76471H66.2595V12.1192H74.2351V15.6192H62.1868V0.770903Z" fill="#231E1B" />
	<path d="M83.4833 15.9161C82.4227 15.9161 81.4258 15.7252 80.4925 15.3434C79.5591 14.9616 78.746 14.4313 78.0531 13.7525C77.3743 13.0596 76.8299 12.2465 76.4198 11.3132C76.0238 10.3657 75.8259 9.34048 75.8259 8.23746V8.19504C75.8259 7.12031 76.0238 6.11628 76.4198 5.18296C76.8157 4.2355 77.3602 3.41531 78.0531 2.72239C78.746 2.01533 79.5662 1.46382 80.5137 1.06787C81.4753 0.671915 82.5217 0.473938 83.653 0.473938C84.4166 0.473938 85.1096 0.551715 85.7318 0.707269C86.354 0.848681 86.9196 1.0608 87.4287 1.34362C87.9519 1.61231 88.4186 1.93755 88.8287 2.31937C89.2529 2.70118 89.6277 3.11834 89.9529 3.57086L86.856 5.9678C86.4318 5.43043 85.9651 5.0062 85.456 4.69509C84.9469 4.38398 84.3318 4.22843 83.6106 4.22843C83.0874 4.22843 82.6066 4.33449 82.1682 4.54661C81.7439 4.74458 81.3763 5.02034 81.0652 5.37387C80.7541 5.7274 80.5066 6.14456 80.3228 6.62536C80.1531 7.10617 80.0682 7.61525 80.0682 8.15262V8.19504C80.0682 8.74655 80.1531 9.26977 80.3228 9.76471C80.5066 10.2455 80.7541 10.6627 81.0652 11.0162C81.3763 11.3697 81.7439 11.6526 82.1682 11.8647C82.6066 12.0627 83.0874 12.1616 83.6106 12.1616C83.9924 12.1616 84.3389 12.1192 84.65 12.0344C84.9752 11.9495 85.2651 11.8293 85.5196 11.6738C85.7883 11.5041 86.0358 11.3132 86.2621 11.1011C86.5025 10.8748 86.7358 10.6273 86.9621 10.3586L90.059 12.5647C89.7054 13.0455 89.3166 13.4909 88.8923 13.901C88.4822 14.3111 88.0085 14.6646 87.4711 14.9616C86.9479 15.2586 86.354 15.4919 85.6893 15.6616C85.0388 15.8313 84.3035 15.9161 83.4833 15.9161Z" fill="#231E1B" />
	<path d="M91.8295 0.770903H95.9446V6.3284H101.226V0.770903H105.341V15.6192H101.226V9.97683H95.9446V15.6192H91.8295V0.770903Z" fill="#231E1B" />
	<path d="M116.705 9.76471L115.051 5.54356L113.375 9.76471H116.705ZM113.099 0.664844H117.066L123.387 15.6192H118.975L117.893 12.9677H112.166L111.106 15.6192H106.778L113.099 0.664844Z" fill="#231E1B" />
	<path d="M124.828 0.770903H128.667L134.776 8.61928V0.770903H138.849V15.6192H135.243L128.901 7.47384V15.6192H124.828V0.770903Z" fill="#231E1B" />
	<path d="M141.567 0.770903H145.704V15.6192H141.567V0.770903Z" fill="#231E1B" />
	<path d="M154.255 15.8737C152.926 15.8737 151.66 15.6687 150.458 15.2586C149.27 14.8485 148.217 14.2333 147.298 13.4131L149.589 10.6768C151.073 11.8647 152.678 12.4586 154.404 12.4586C154.955 12.4586 155.372 12.3738 155.655 12.2041C155.952 12.0202 156.101 11.7657 156.101 11.4404V11.398C156.101 11.2425 156.065 11.1081 155.995 10.995C155.924 10.8677 155.79 10.7475 155.592 10.6344C155.408 10.5213 155.153 10.4152 154.828 10.3162C154.517 10.2031 154.107 10.09 153.598 9.97683C152.806 9.793 152.07 9.59502 151.392 9.3829C150.713 9.15664 150.119 8.87382 149.61 8.53443C149.115 8.1809 148.719 7.74959 148.422 7.24051C148.139 6.71728 147.998 6.07386 147.998 5.31023V5.26781C147.998 4.57489 148.125 3.93854 148.38 3.35875C148.648 2.77896 149.03 2.27694 149.525 1.85271C150.034 1.42847 150.642 1.10322 151.349 0.876962C152.056 0.636562 152.855 0.516362 153.746 0.516362C155.019 0.516362 156.15 0.686057 157.14 1.02545C158.144 1.35069 159.049 1.83857 159.855 2.48906L157.798 5.39508C157.119 4.91428 156.419 4.55368 155.698 4.31328C154.991 4.05874 154.305 3.93146 153.64 3.93146C153.145 3.93146 152.77 4.02338 152.516 4.20722C152.275 4.39105 152.155 4.61731 152.155 4.886V4.92842C152.155 5.09811 152.191 5.2466 152.261 5.37387C152.346 5.50114 152.48 5.62134 152.664 5.73447C152.862 5.83346 153.124 5.93952 153.449 6.05265C153.789 6.15163 154.213 6.25769 154.722 6.37082C155.57 6.55466 156.334 6.77385 157.013 7.02839C157.706 7.26879 158.293 7.56576 158.773 7.91929C159.254 8.27282 159.622 8.70412 159.876 9.21321C160.131 9.70815 160.258 10.3021 160.258 10.995V11.0374C160.258 11.801 160.11 12.4798 159.813 13.0738C159.53 13.6677 159.127 14.1768 158.604 14.601C158.08 15.0111 157.451 15.3293 156.716 15.5555C155.98 15.7677 155.16 15.8737 154.255 15.8737Z" fill="#231E1B" />
	<path d="M162.259 0.770903H166.608L170.15 6.51931L173.693 0.770903H178.041V15.6192H173.947V7.09203L170.15 12.9041H170.065L166.29 7.13445V15.6192H162.259V0.770903Z" fill="#231E1B" />
	<path d="M43.7715 20.1707H47.9078V35.019H43.7715V20.1707Z" fill="#231E1B" />
	<path d="M50.626 20.1707H54.4654L60.5744 28.0191V20.1707H64.6471V35.019H61.041L54.6987 26.8736V35.019H50.626V20.1707Z" fill="#231E1B" />
	<path d="M73.1139 35.2735C71.7846 35.2735 70.519 35.0684 69.317 34.6583C68.1291 34.2483 67.0756 33.6331 66.1564 32.8129L68.4473 30.0766C69.9321 31.2645 71.5371 31.8584 73.2624 31.8584C73.8139 31.8584 74.231 31.7735 74.5139 31.6038C74.8108 31.42 74.9593 31.1655 74.9593 30.8402V30.7978C74.9593 30.6422 74.924 30.5079 74.8533 30.3948C74.7826 30.2675 74.6482 30.1473 74.4502 30.0342C74.2664 29.921 74.0119 29.815 73.6866 29.716C73.3755 29.6029 72.9654 29.4897 72.4563 29.3766C71.6644 29.1928 70.9291 28.9948 70.2503 28.7827C69.5715 28.5564 68.9776 28.2736 68.4685 27.9342C67.9736 27.5807 67.5776 27.1494 67.2806 26.6403C66.9978 26.1171 66.8564 25.4736 66.8564 24.71V24.6676C66.8564 23.9747 66.9837 23.3383 67.2382 22.7585C67.5069 22.1787 67.8887 21.6767 68.3837 21.2525C68.8927 20.8282 69.5008 20.503 70.2079 20.2767C70.9149 20.0363 71.7139 19.9161 72.6048 19.9161C73.8775 19.9161 75.0088 20.0858 75.9987 20.4252C77.0027 20.7505 77.9078 21.2383 78.7138 21.8888L76.6563 24.7949C75.9775 24.3141 75.2775 23.9535 74.5563 23.7131C73.8492 23.4585 73.1634 23.3312 72.4987 23.3312C72.0038 23.3312 71.6291 23.4232 71.3745 23.607C71.1341 23.7908 71.0139 24.0171 71.0139 24.2858V24.3282C71.0139 24.4979 71.0493 24.6464 71.12 24.7736C71.2048 24.9009 71.3392 25.0211 71.523 25.1342C71.721 25.2332 71.9826 25.3393 72.3078 25.4524C72.6472 25.5514 73.0715 25.6575 73.5805 25.7706C74.429 25.9544 75.1926 26.1736 75.8714 26.4282C76.5643 26.6686 77.1512 26.9655 77.632 27.3191C78.1128 27.6726 78.4805 28.1039 78.735 28.613C78.9896 29.1079 79.1168 29.7019 79.1168 30.3948V30.4372C79.1168 31.2008 78.9684 31.8796 78.6714 32.4735C78.3886 33.0675 77.9855 33.5765 77.4623 34.0008C76.9391 34.4109 76.3098 34.7291 75.5745 34.9553C74.8391 35.1674 74.0189 35.2735 73.1139 35.2735Z" fill="#231E1B" />
	<path d="M84.7453 23.7767H80.2908V20.1707H93.3148V23.7767H88.8603V35.019H84.7453V23.7767Z" fill="#231E1B" />
	<path d="M95.206 20.1707H99.3423V35.019H95.206V20.1707Z" fill="#231E1B" />
	<path d="M105.688 23.7767H101.233V20.1707H114.257V23.7767H109.803V35.019H105.688V23.7767Z" fill="#231E1B" />
	<path d="M122.745 35.2947C121.685 35.2947 120.73 35.1604 119.882 34.8917C119.033 34.623 118.312 34.2129 117.718 33.6614C117.124 33.0957 116.665 32.3887 116.339 31.5402C116.028 30.6776 115.873 29.6665 115.873 28.5069V20.1707H120.051V28.4221C120.051 29.4968 120.299 30.2958 120.794 30.819C121.289 31.3281 121.953 31.5826 122.788 31.5826C123.622 31.5826 124.287 31.3352 124.782 30.8402C125.277 30.3453 125.524 29.5746 125.524 28.5281V20.1707H129.703V28.4009C129.703 29.6029 129.533 30.6422 129.194 31.519C128.869 32.3816 128.402 33.0957 127.794 33.6614C127.2 34.2129 126.472 34.623 125.609 34.8917C124.761 35.1604 123.806 35.2947 122.745 35.2947Z" fill="#231E1B" />
	<path d="M135.765 23.7767H131.311V20.1707H144.335V23.7767H139.881V35.019H135.765V23.7767Z" fill="#231E1B" />
	<path d="M146.141 20.1707H158.084V23.6706H150.214V25.9191H157.341V29.1645H150.214V31.519H158.19V35.019H146.141V20.1707Z" fill="#231E1B" />
</svg>
