<svg width="37" height="40" viewBox="0 0 37 40" fill="none" xmlns="http://www.w3.org/2000/svg">
	<path fill-rule="evenodd" clip-rule="evenodd" d="M18.1504 40C12.9869 40 8.32689 37.8438 5.0218 34.3828H31.2791C27.974 37.8438 23.314 40 18.1504 40ZM33.069 32.1905C33.6935 31.2913 34.2388 30.3329 34.6947 29.3255L20.4187 3.84018C19.6756 3.74755 18.9186 3.69983 18.1504 3.69983C17.4582 3.69983 16.7751 3.73858 16.1031 3.81402L1.61445 29.3438C2.06871 30.3446 2.61114 31.2968 3.23184 32.1905H33.069ZM36.3009 21.8499C36.3009 23.49 36.0833 25.0794 35.6755 26.5906L23.2615 4.42936C30.7973 6.63661 36.3009 13.6006 36.3009 21.8499ZM0 21.8499C0 13.5164 5.61645 6.49466 13.2706 4.3633L0.635358 26.6274C0.221104 25.1052 0 23.5034 0 21.8499ZM18.3884 27.4621C21.6516 27.4621 24.297 24.8168 24.297 21.5536C24.297 18.2904 21.6516 15.6451 18.3884 15.6451C15.1252 15.6451 12.4798 18.2904 12.4798 21.5536C12.4798 24.8168 15.1252 27.4621 18.3884 27.4621Z" fill="#6D645B" />
	<path fill-rule="evenodd" clip-rule="evenodd" d="M0 32.1905L18.2687 0L36.3007 32.1905H0ZM18.3898 27.462C21.6531 27.462 24.2985 24.8167 24.2985 21.5535C24.2985 18.2903 21.6531 15.645 18.3898 15.645C15.1266 15.645 12.4812 18.2903 12.4812 21.5535C12.4812 24.8167 15.1266 27.462 18.3898 27.462Z" fill="#231E1B" />
</svg>
