<svg width="16" height="15" viewBox="0 0 16 15" fill="none" xmlns="http://www.w3.org/2000/svg">
<path d="M1.4375 7.53467L13.6875 0.534668C13.9609 0.370605 14.3438 0.370605 14.6172 0.562012C14.8906 0.753418 15.0273 1.08154 14.9727 1.40967L13.2227 12.7847C13.1406 13.3315 12.5391 13.687 12.0195 13.4683L8.62891 12.0464L6.93359 14.0972C6.76953 14.2886 6.52344 14.3979 6.25 14.3979C5.75781 14.3979 5.375 14.0151 5.375 13.5229V10.6792L1.51953 9.09326C0.863281 8.81982 0.808594 7.89014 1.4375 7.53467ZM2.85938 8.21826L6.22266 9.61279L6.19531 9.58545L12.1836 2.88623L2.85938 8.21826ZM12.0195 12.0464L13.3047 3.59717L7.45312 10.1323L12.0195 12.0464Z" fill="white"/>
</svg>
