<svg width="287" height="287" viewBox="0 0 287 287" fill="none" xmlns="http://www.w3.org/2000/svg">
<path d="M143.543 286.389C64.6245 286.389 0.648382 222.413 0.648389 143.494L143.543 143.494L143.543 286.389Z" fill="#8D7C70"/>
<ellipse cx="214.99" cy="214.943" rx="71.4476" ry="71.4473" transform="rotate(90 214.99 214.943)" fill="#8D7C70"/>
<path d="M0.561794 143.741V0.556274H143.746C64.6679 0.55652 0.561794 64.6626 0.561794 143.741Z" fill="#8D7C70"/>
<path d="M143.744 72.1493C104.205 72.1493 72.1523 104.202 72.1523 143.742H143.744V72.1493Z" fill="#8D7C70"/>
<path fill-rule="evenodd" clip-rule="evenodd" d="M286.439 143.452C286.413 64.5449 222.451 0.583485 143.544 0.559198L143.544 5.32236C219.82 5.34665 281.65 67.1755 281.676 143.452L286.439 143.452ZM272.299 143.452C272.273 72.3542 214.642 14.7234 143.544 14.6989L143.544 19.4621C212.011 19.4865 267.51 74.9848 267.535 143.452L272.299 143.452ZM258.158 143.452C258.132 80.1641 206.832 28.8644 143.544 28.8398L143.544 33.603C204.201 33.6276 253.369 82.7947 253.395 143.452L258.158 143.452ZM244.025 143.452C243.999 87.9693 199.027 42.9969 143.544 42.9726L143.544 47.7358C196.396 47.7601 239.236 90.5999 239.262 143.452L244.025 143.452ZM229.883 143.452C229.857 95.7795 191.216 57.1386 143.544 57.1135L143.544 61.8767C188.586 61.9018 225.094 98.4101 225.12 143.452L229.883 143.452ZM215.75 143.452C215.725 103.585 183.411 71.2711 143.544 71.2463L143.544 76.0095C180.78 76.0343 210.962 106.215 210.987 143.452L215.75 143.452ZM201.61 143.452C201.585 111.394 175.602 85.4116 143.544 85.3872L143.544 90.1504C172.971 90.1747 196.822 114.025 196.847 143.452L201.61 143.452ZM187.469 143.452C187.445 119.204 167.792 99.5514 143.544 99.5269L143.544 104.29C165.162 104.315 182.681 121.834 182.706 143.452L187.469 143.452ZM173.335 143.452C173.309 127.011 159.985 113.688 143.544 113.663L143.544 118.426C157.355 118.451 168.546 129.641 168.572 143.452L173.335 143.452ZM159.195 143.452C159.169 134.82 152.176 127.828 143.544 127.803L143.544 132.566C149.545 132.591 154.406 137.451 154.431 143.452L159.195 143.452Z" fill="#8D7C70"/>
</svg>
